HIERARCHY
ROOT Hips
{
  OFFSET 0 0 0
  CHANNELS 6 Xposition Yposition Zposition Zrotation Yrotation Xrotation
  JOINT LeftThigh
  {
    OFFSET 8.409438 0 -5.917753
    CHANNELS 3 Zrotation Yrotation Xrotation
    JOINT LeftLeg
    {
      OFFSET 0 0 -42.358652
      CHANNELS 3 Zrotation Yrotation Xrotation
      JOINT LeftFoot
      {
        OFFSET 0 0 -39.357303
        CHANNELS 3 Zrotation Yrotation Xrotation
      }
    }
  }
  JOINT RightThigh
  {
    OFFSET -8.409438 0 -5.917753
    CHANNELS 3 Zrotation Yrotation Xrotation
    JOINT RightLeg
    {
      OFFSET 0 0 -42.358652
      CHANNELS 3 Zrotation Yrotation Xrotation
      JOINT RightFoot
      {
        OFFSET 0 0 -39.357303
        CHANNELS 3 Zrotation Yrotation Xrotation
      }
    }
  }
  JOINT SpineLow
  {
    OFFSET 0 0 4.719101
    CHANNELS 3 Zrotation Yrotation Xrotation
    JOINT SpineMid
    {
      OFFSET 0 0 12.899191
      CHANNELS 3 Zrotation Yrotation Xrotation
      JOINT Chest
      {
        OFFSET 0 0 12.899191
        CHANNELS 3 Zrotation Yrotation Xrotation
        JOINT LeftShoulder
        {
          OFFSET 7.550562 1.41573 9.438202
          CHANNELS 3 Zrotation Yrotation Xrotation
          JOINT LeftArm
          {
            OFFSET 9.155056 0 4.247191
            CHANNELS 3 Zrotation Yrotation Xrotation
            JOINT LeftForearm
            {
              OFFSET 0 0 25.771955
              CHANNELS 3 Zrotation Yrotation Xrotation
              JOINT LeftHand
              {
                OFFSET 0 0 25.197169
                CHANNELS 3 Zrotation Yrotation Xrotation
              }
            }
          }
        }
        JOINT RightShoulder
        {
          OFFSET -7.550562 1.41573 9.438202
          CHANNELS 3 Zrotation Yrotation Xrotation
          JOINT RightArm
          {
            OFFSET -9.155056 0 4.247191
            CHANNELS 3 Zrotation Yrotation Xrotation
            JOINT RightForearm
            {
              OFFSET 0 0 -25.771955
              CHANNELS 3 Zrotation Yrotation Xrotation
              JOINT RightHand
              {
                OFFSET 0 0 -25.197169
                CHANNELS 3 Zrotation Yrotation Xrotation
              }
            }
          }
        }
        JOINT Neck
        {
          OFFSET 0 0 15.101124
          CHANNELS 3 Zrotation Yrotation Xrotation
          JOINT Head
          {
            OFFSET 0 0 11.325843
            CHANNELS 3 Zrotation Yrotation Xrotation
            End Site
            {
              OFFSET 0 0 14.157303
            }
          }
        }
      }
    }
  }
}
MOTION
Frames: 11
Frame Time: 0.0
0.0  89.887642  0.0  3.05458  -4.778418  -97.063107  -2.460313  -14.670374  -8.902364  -6.024888  20.300589  34.752156  1.83427  0.191757  1.2803  -22.516127  16.956319  -15.956426  -2.953307  7.827077  31.288716  2.364014  0.990718  -0.918714  -0.177311  -0.106246  1.191644  -0.489764  -0.281594  3.258016  -0.489764  -0.281594  3.258016  -13.107844  24.832244  7.327627  174.13739  55.604042  -145.768136  1.220961  -5.615639  28.105357  97.205325  5.399103  -4.82988  -11.364335  4.081311  24.114635  52.81166  13.453992  48.277208  26.02155  -28.767135  -112.688976  61.557333  7.555441  -27.698635  -9.175561  1.715261  1.192317  -6.884533  1.268889  0.920179  
0.0  89.887642  0.0  3.107965  -4.999494  -97.091962  -2.476868  -14.694077  -8.669635  -5.942544  20.276818  34.594298  1.812516  0.239553  1.284044  -22.497775  16.932554  -15.99265  -2.952873  7.837733  31.206211  2.420475  1.002262  -0.911461  -0.199912  -0.09855  1.207343  -0.551204  -0.25932  3.300956  -0.551204  -0.25932  3.300956  -12.993706  24.841085  7.251002  173.926988  55.557737  -145.687571  1.11521  -5.597072  27.885354  97.318501  5.473134  -4.822267  -11.302496  4.058581  24.098071  52.537304  13.550136  47.876637  26.216781  -28.928468  -112.788246  61.572483  7.100858  -27.487417  -8.997193  1.766488  1.146269  -6.7507  1.308333  0.885877  
0.0  89.887642  0.0  3.120115  -5.124934  -97.007716  -2.761268  -14.705431  -8.709837  -5.741955  20.2282  34.535049  1.909322  0.322186  1.359887  -22.462318  16.937105  -16.075295  -2.997025  7.772499  31.084853  2.410639  0.979628  -0.881589  -0.243911  -0.097023  1.203152  -0.671347  -0.252992  3.289651  -0.671347  -0.252992  3.289652  -12.860462  24.862704  7.144452  173.980813  55.448437  -145.640905  1.095005  -5.577421  27.776141  97.500177  5.440199  -4.757821  -11.293206  4.025639  24.00806  52.653197  13.64785  47.736517  26.442897  -29.135331  -112.834565  61.50918  6.841574  -27.247061  -8.856237  1.804781  1.071509  -6.644817  1.338396  0.829935  
0.0  89.887642  0.0  3.078829  -5.279439  -96.90479  -2.805309  -14.792963  -8.678077  -5.616091  20.231144  34.442395  1.784604  0.289567  1.319106  -22.215505  16.831353  -16.029822  -3.005078  7.707952  30.931842  2.296428  0.968213  -0.866677  -0.27437  -0.103529  1.206049  -0.754915  -0.269222  3.297758  -0.754915  -0.269222  3.297758  -12.724661  24.892617  7.01153  173.790609  55.430321  -145.612434  1.056158  -5.56397  27.580828  97.626782  5.440764  -4.708941  -11.387886  3.950391  23.834334  52.428049  13.795717  47.337206  26.792512  -29.232766  -112.651113  61.494115  6.350315  -26.873412  -8.719174  1.826098  0.982321  -6.541781  1.35589  0.762926  
0.0  89.887642  0.0  3.066874  -5.383448  -96.801897  -2.908559  -14.78737  -8.723285  -5.649151  20.17072  34.269006  1.88575  0.360044  1.405883  -22.066468  16.801262  -16.031369  -3.154018  7.673659  30.732253  2.246283  0.957756  -0.843314  -0.323162  -0.107371  1.198758  -0.888407  -0.277384  3.278071  -0.888407  -0.277384  3.278071  -12.559054  24.918471  6.86766  173.686962  55.339458  -145.625029  1.025894  -5.573591  27.404473  97.752911  5.346054  -4.592949  -11.400297  3.939267  23.686408  52.663218  13.914877  47.161955  26.987656  -29.447646  -112.643938  61.414486  5.836222  -26.344436  -8.559406  1.856483  0.903247  -6.421753  1.380037  0.703551  
0.0  89.887642  0.0  3.061425  -5.485645  -96.730906  -2.756433  -14.745478  -8.642641  -5.906564  20.170034  33.940419  1.87539  0.339157  1.452746  -21.838088  16.754773  -15.94828  -3.283739  7.650418  30.525026  2.141987  0.933205  -0.835392  -0.372774  -0.112669  1.201356  -1.024254  -0.289361  3.285453  -1.024254  -0.289361  3.285453  -12.349333  24.959675  6.682958  173.56312  55.251297  -145.64365  0.97362  -5.568732  27.304197  97.837327  5.217639  -4.441728  -11.348813  3.942781  23.524507  52.477297  14.096308  46.649654  27.235949  -29.531106  -112.38378  61.348519  5.067647  -25.695396  -8.365052  1.876296  0.822596  -6.275767  1.396276  0.642727  
0.0  89.887642  0.0  3.087155  -5.59728  -96.682725  -2.584372  -14.647086  -8.585807  -6.22822  20.054075  33.598862  2.008056  0.365612  1.592131  -21.656883  16.761381  -15.887936  -3.491797  7.665279  30.271149  2.120359  0.928061  -0.809667  -0.428176  -0.112953  1.202664  -1.175667  -0.287359  3.289262  -1.175667  -0.287359  3.289262  -12.090256  24.981608  6.491215  173.481711  55.132185  -145.622679  0.860939  -5.559419  27.21547  97.869835  5.00656  -4.233399  -11.288454  3.983941  23.344986  52.822456  14.268113  46.382577  27.337621  -29.729538  -112.298139  61.260704  4.236503  -24.92555  -8.168839  1.890745  0.744068  -6.128385  1.408415  0.583407  
0.0  89.887642  0.0  3.103583  -5.68547  -96.561455  -2.304759  -14.537436  -8.539164  -6.520829  19.840312  33.255986  2.150727  0.373053  1.733258  -21.467133  16.72144  -15.852465  -3.746234  7.674125  30.006112  2.099634  0.927507  -0.801355  -0.479802  -0.114766  1.195574  -1.316803  -0.289885  3.27013  -1.316803  -0.289885  3.270131  -11.81642  24.98708  6.307957  173.52181  54.981463  -145.501501  0.74032  -5.523354  27.268635  97.832515  4.752392  -3.944339  -11.299267  4.027002  23.142121  52.699622  14.507876  45.727041  27.505676  -29.775685  -111.945678  61.255069  3.080889  -24.078292  -7.972467  1.897011  0.675657  -5.98091  1.414232  0.53156  
0.0  89.887642  0.0  3.143284  -5.835141  -96.508315  -2.00597  -14.430182  -8.483009  -6.711657  19.576589  32.99635  2.201628  0.366772  1.840531  -21.343756  16.722969  -15.82696  -3.832278  7.648354  29.74053  2.08117  0.923036  -0.783398  -0.526802  -0.106539  1.198009  -1.444839  -0.265027  3.276797  -1.444839  -0.265027  3.276798  -11.53305  24.937902  6.121592  173.660784  54.811248  -145.312523  0.578482  -5.472695  27.390644  97.747799  4.463307  -3.572471  -11.263979  4.091203  22.935566  53.180693  14.715589  45.344234  27.504935  -29.953213  -111.745005  61.325517  1.975611  -23.209435  -7.768193  1.878787  0.596177  -5.827462  1.401783  0.471073  
0.0  89.887642  0.0  3.18691  -5.938714  -96.45794  -1.744885  -14.309572  -8.369679  -6.824769  19.236544  32.754011  2.142331  0.353662  1.895305  -21.082069  16.735381  -15.696831  -3.951744  7.60487  29.441812  1.943563  0.894531  -0.784496  -0.575065  -0.091958  1.225908  -1.576084  -0.222125  3.352877  -1.576084  -0.222125  3.352877  -11.320801  24.771859  5.768059  173.900002  54.583521  -145.07579  0.479516  -5.358524  27.687422  97.632735  4.180115  -3.159353  -11.286433  4.08738  22.576292  52.750229  15.006865  44.287952  27.503635  -30.09803  -111.507148  61.739813  -0.054762  -22.253726  -7.557517  1.812774  0.440182  -5.668974  1.354383  0.352599  
0.0  89.887642  0.0  3.24303  -6.104572  -96.421454  -1.486132  -14.200367  -8.230879  -6.970261  18.924207  32.42518  2.126078  0.341097  1.951696  -20.99754  16.721582  -15.648201  -3.909287  7.550206  29.114466  1.911165  0.874232  -0.758552  -0.618325  -0.072762  1.244881  -1.693363  -0.166993  3.404369  -1.693363  -0.166993  3.404369  -11.067266  24.575413  5.481161  174.111389  54.332711  -144.81987  0.410874  -5.221113  28.033069  97.485453  3.942  -2.695524  -11.243865  4.069329  22.275957  53.345294  15.324858  43.866682  27.409236  -30.300277  -111.217386  62.091687  -1.285554  -21.396199  -7.351049  1.741828  0.301651  -5.513723  1.302967  0.247221  
